PathFileType	4	(X/Y/Z)	s06c0001.trc
DataRate	CameraRate	NumFrames	NumMarkers	Units	OrigDataRate	OrigDataStartFrame	OrigNumFrames
200	200	7	49	mm	200	500	2000
Frame#	Time	racr			lacr			c7			jug			rlel			rdr			llel			ldr			s2			lic			ric			lasi			rasi			rpsi			lpsi			rgt			lgt			rth1			rth2			rth3			rth4			rlfc			rmfc			rsh1			rsh2			rsh3			rsh4			rlmal			rmmal			rcal			rtoe			rmt5			rmt1			lth1			lth2			lth4			lth3			llfc			lmfc			llmal			lmmal			lcal			lmt1			lmt5			lsh1			lsh2			lsh3			lsh4			ltoe			
		X1	Y1	Z1	X2	Y2	Z2	X3	Y3	Z3	X4	Y4	Z4	X5	Y5	Z5	X6	Y6	Z6	X7	Y7	Z7	X8	Y8	Z8	X9	Y9	Z9	X10	Y10	Z10	X11	Y11	Z11	X12	Y12	Z12	X13	Y13	Z13	X14	Y14	Z14	X15	Y15	Z15	X16	Y16	Z16	X17	Y17	Z17	X18	Y18	Z18	X19	Y19	Z19	X20	Y20	Z20	X21	Y21	Z21	X22	Y22	Z22	X23	Y23	Z23	X24	Y24	Z24	X25	Y25	Z25	X26	Y26	Z26	X27	Y27	Z27	X28	Y28	Z28	X29	Y29	Z29	X30	Y30	Z30	X31	Y31	Z31	X32	Y32	Z32	X33	Y33	Z33	X34	Y34	Z34	X35	Y35	Z35	X36	Y36	Z36	X37	Y37	Z37	X38	Y38	Z38	X39	Y39	Z39	X40	Y40	Z40	X41	Y41	Z41	X42	Y42	Z42	X43	Y43	Z43	X44	Y44	Z44	X45	Y45	Z45	X46	Y46	Z46	X47	Y47	Z47	X48	Y48	Z48	X49	Y49	Z49	
500	2.5000	225.769501	1417.599976	397.766266	228.489456	1429.548584	43.296432	189.947998	1490.109497	217.505951	310.950592	1395.617676	223.885727	246.536728	1199.836548	575.573120	346.811432	1040.735474	766.122498	235.629623	1207.869629	-128.706375	332.192291	1070.875610	-329.595154	116.190315	964.651428	230.205200	268.581238	1008.433960	51.292480	279.153900	986.739258	388.490234	321.213715	955.279236	80.428009	333.441803	945.488220	350.678223	140.177673	998.369446	257.432037	127.108070	995.230042	193.872375	241.674179	871.731995	401.069977	246.904892	896.701538	27.969347	251.281479	749.705994	420.503021	259.567566	660.025574	413.837280	223.169083	582.266602	400.149109	296.036896	655.644165	404.484772	205.447693	473.363129	380.427155	220.669312	450.292389	272.214264	174.635223	353.357208	401.934967	188.358871	267.659393	382.024353	159.804688	186.568832	370.659821	216.861740	269.725464	354.608856	154.715942	99.775986	358.369720	199.879211	122.012840	273.256927	109.522232	65.701721	297.094635	382.146210	75.540215	334.591461	280.679993	43.230583	392.385742	303.936127	59.737358	276.960968	230.046692	764.035095	12.309991	243.985657	677.799805	17.389660	280.313202	674.181763	25.779852	211.539520	595.468506	29.571920	182.571640	477.224792	49.866432	203.694229	455.757263	159.794235	154.595047	99.240662	56.060486	171.038437	121.931717	141.102707	100.962769	58.884102	110.526695	310.739349	52.405655	132.998917	290.053406	51.095268	17.884809	160.085724	370.760681	24.010998	177.380280	285.939545	36.916851	150.099487	202.150085	38.009953	208.064377	286.308075	61.553337	380.342407	71.591690	69.508049	
501	2.5050	225.785736	1417.601074	397.781219	228.497330	1429.544678	43.288048	189.964127	1490.104370	217.499008	311.121887	1395.972656	223.878372	246.564224	1199.851318	575.582275	346.839844	1040.777588	766.165527	235.644409	1207.863403	-128.706009	332.226990	1070.870239	-329.573517	116.189514	964.665466	230.222290	268.592407	1008.427856	51.324917	279.172485	986.753540	388.489380	321.232574	955.286621	80.423889	333.429260	945.470459	350.687592	140.200378	998.374756	257.423370	127.105652	995.233154	193.890427	241.721649	871.721130	401.080078	246.918289	896.701477	27.983204	251.292587	749.708252	420.508942	259.566223	660.018677	413.838226	223.175629	582.246582	400.148438	296.041931	655.633667	404.496368	205.436417	473.363251	380.419464	220.653732	450.290314	272.217560	174.638672	353.339661	401.927765	188.371765	267.675476	382.014801	159.822998	186.568573	370.668793	216.859222	269.725647	354.611389	154.694489	99.774437	358.364624	199.901443	122.029633	273.248749	109.522591	65.714333	297.059814	382.140900	75.528015	334.579193	280.664551	43.230766	392.396179	303.934418	59.719311	276.980072	230.058365	764.038879	12.317141	243.983856	677.790283	17.413132	280.312164	674.184387	25.777649	211.539474	595.456055	29.571190	182.573395	477.231293	49.867374	203.673706	455.754303	159.795609	154.594345	99.248245	56.056599	171.032089	121.933739	141.095535	100.963776	58.880856	110.519028	310.743988	52.403049	133.002441	290.068054	51.085388	17.888969	160.086792	370.770142	24.004189	177.389175	285.936310	36.950691	150.119980	202.140366	38.027927	208.066208	286.291809	61.575546	380.331696	71.568962	69.514740	
502	2.5100	225.813126	1417.606079	397.767151	228.514374	1429.536865	43.301052	189.974228	1490.109863	217.516083	310.971954	1395.625854	223.902069	246.576202	1199.870239	575.601196	346.869232	1040.797607	766.179688	235.664047	1207.848877	-128.693222	332.273438	1070.869873	-329.551880	116.207886	964.662170	230.215775	268.604492	1008.430481	51.317432	279.180115	986.757751	388.485718	321.222900	955.279541	80.430923	333.458649	945.484436	350.699005	140.207825	998.369568	257.432373	127.059494	995.310669	193.916519	241.772964	871.715942	401.090546	246.929504	896.696655	27.981821	251.282974	749.728577	420.520721	259.579376	660.026001	413.840424	223.195953	582.251038	400.161865	296.047913	655.630188	404.501099	205.452911	473.356781	380.425781	220.660797	450.291260	272.223633	174.641068	353.356171	401.937958	188.383682	267.666229	382.036530	159.809418	186.559464	370.659882	216.887009	269.740814	354.612091	154.712250	99.786667	358.376862	199.903366	122.016624	273.252899	109.522377	65.700462	297.069794	382.142517	75.531601	334.588928	280.665314	43.228260	392.383820	303.939117	59.740234	276.963013	230.067627	764.037720	12.323128	243.983810	677.796631	17.407198	280.313293	674.191223	25.787712	211.540100	595.452515	29.579912	182.594040	477.223358	49.890411	203.705887	455.735840	159.806320	154.619949	99.228722	56.068272	171.051559	121.933525	141.086288	100.983376	58.869152	110.535500	310.754974	52.407272	132.999069	290.063446	51.084557	17.897411	160.097885	370.761353	24.022015	177.399826	285.943573	36.954189	150.093781	202.150879	38.022739	208.065506	286.306854	61.577877	380.354645	71.574562	69.513908	
503	2.5150	225.804199	1417.605591	397.776428	228.515625	1429.524414	43.296047	189.971466	1490.093506	217.519745	310.988190	1395.615112	223.886215	246.594193	1199.881226	575.608826	346.887360	1040.826294	766.195862	235.680923	1207.843262	-128.681244	332.287872	1070.880737	-329.557159	116.205261	964.667114	230.244949	268.596527	1008.446167	51.319584	279.190033	986.764954	388.508759	321.232849	955.281799	80.424881	333.464661	945.483582	350.696289	140.207581	998.377258	257.455048	127.117516	995.241516	193.891830	241.790283	871.707703	401.084015	246.932312	896.699036	27.987730	251.291016	749.709412	420.529510	259.583099	660.019409	413.852570	223.217865	582.201721	400.145081	296.055481	655.658997	404.513733	205.440063	473.355042	380.429993	220.656647	450.295166	272.221161	174.661728	353.328888	401.947357	188.381622	267.658325	382.039917	159.823029	186.568649	370.668365	216.885757	269.753845	354.615295	154.709061	99.789818	358.356293	199.881485	122.009613	273.242126	109.506500	65.722275	297.069946	382.152679	75.537544	334.598022	280.683563	43.235600	392.397644	303.921173	59.733192	276.968323	230.065323	764.038452	12.331717	243.983612	677.804810	17.401758	280.311676	674.181396	25.796896	211.531982	595.471252	29.581909	182.594070	477.223358	49.890411	203.711105	455.750214	159.806747	154.619125	99.229240	56.059448	171.024460	121.927696	141.101273	100.966331	58.891079	110.523048	310.746582	52.408566	132.998016	290.067963	51.086159	17.887955	160.101501	370.779999	24.017036	177.389175	285.925385	36.948509	150.122147	202.136154	38.032532	208.063248	286.296631	61.564552	380.357605	71.582359	69.505989	
504	2.5200	225.804382	1417.610352	397.776520	228.513443	1429.530151	43.302711	189.987091	1490.103149	217.528931	310.993103	1395.615479	223.890976	246.602158	1199.892212	575.616455	346.905731	1040.858643	766.206848	235.689041	1207.828247	-128.668259	332.317230	1070.865967	-329.533569	116.204277	964.675354	230.255829	268.599274	1008.428711	51.322128	279.201691	986.765930	388.518188	321.239624	955.276489	80.441200	333.474579	945.468201	350.700897	140.218674	998.382751	257.453583	127.072968	995.323425	193.933319	241.814667	871.722900	401.078949	246.922043	896.704346	27.999277	251.296494	749.712097	420.539276	259.583801	660.016968	413.851685	223.196838	582.252747	400.179199	296.063873	655.608093	404.490082	205.451752	473.354797	380.422913	220.670273	450.291229	272.215424	174.662949	353.339142	401.939911	188.381500	267.658417	382.039734	159.821411	186.545425	370.667816	216.888794	269.740723	354.630402	154.709106	99.759277	358.367737	199.881760	122.014709	273.245575	109.522446	65.715576	297.084656	382.137909	75.528381	334.586029	280.689209	43.229664	392.387085	303.952911	59.735359	276.973022	230.071609	764.045410	12.353926	243.983673	677.798157	17.406055	280.314209	674.189758	25.788601	211.534256	595.464966	29.582897	182.599228	477.217468	49.896530	203.718140	455.742950	159.817734	154.599579	99.221832	56.054581	171.034683	121.925758	141.106140	100.964478	58.871788	110.524597	310.743927	52.411278	133.001312	290.067932	51.082394	17.880035	160.099838	370.770416	24.026014	177.390793	285.935089	36.968079	150.111526	202.142593	38.034447	208.067841	286.313660	61.579559	380.354218	71.573952	69.512962	
505	2.5250	225.820587	1417.611328	397.782593	228.539932	1429.532837	43.296547	189.995117	1490.093628	217.516342	311.016663	1395.615723	223.893021	246.607224	1199.918823	575.630981	346.938904	1040.886230	766.232117	235.710464	1207.821289	-128.659286	332.348572	1070.860352	-329.518433	116.220833	964.672424	230.258286	268.603851	1008.414673	51.325661	279.195618	986.755371	388.513428	321.241211	955.264221	80.440819	333.474731	945.477783	350.710388	140.213501	998.390564	257.465912	127.087173	995.328552	193.937225	241.873917	871.708374	401.075073	246.943588	896.696533	28.011871	251.310699	749.700012	420.543549	259.598358	660.002380	413.854462	223.225159	582.212219	400.160828	296.080139	655.633362	404.501709	205.438339	473.353058	380.429810	220.676270	450.294128	272.221375	174.660187	353.339752	401.949585	188.390411	267.674713	382.025665	159.821350	186.567627	370.664124	216.884552	269.728302	354.626709	154.718582	99.770599	358.374054	199.904892	122.017700	273.251282	109.506279	65.708405	297.079926	382.166534	75.528709	334.588715	280.671906	43.232830	392.388153	303.943878	59.750252	276.970032	230.079803	764.028625	12.364529	243.988480	677.800842	17.421610	280.326416	674.191833	25.802994	211.531113	595.463684	29.593836	182.597961	477.227966	49.899948	203.716461	455.748840	159.816376	154.614014	99.239037	56.046745	171.040192	121.928833	141.104202	100.965172	58.886021	110.521690	310.746246	52.416180	133.009903	290.055939	51.092762	17.882545	160.111267	370.765411	24.032507	177.404724	285.929199	36.966454	150.118729	202.141632	38.043056	208.070679	286.301208	61.590782	380.365417	71.573090	69.509117	
506	2.5300	225.844421	1417.619873	397.777008	228.549820	1429.534546	43.317402	190.031342	1490.101685	217.509796	311.183990	1395.974609	223.896561	246.630768	1199.934448	575.649658	346.953217	1040.906982	766.250244	235.721725	1207.810425	-128.633530	332.377899	1070.857788	-329.506256	116.227516	964.680054	230.276489	268.622528	1008.417175	51.329388	279.217560	986.760376	388.525818	321.258575	955.264099	80.439796	333.504272	945.470337	350.702057	140.248276	998.376099	257.480896	127.148674	995.235962	193.922592	241.909027	871.705139	401.078552	246.930542	896.691528	28.002205	251.328522	749.711914	420.546631	259.603912	660.017273	413.870026	223.200623	582.236755	400.191040	296.076874	655.637878	404.512665	205.441452	473.353577	380.446655	220.661972	450.290192	272.224274	174.659103	353.333344	401.963745	188.393524	267.667999	382.028351	159.826431	186.544891	370.671631	216.885818	269.734131	354.612061	154.724091	99.777763	358.357117	199.901627	122.029671	273.248779	109.522438	65.715569	297.084656	382.156372	75.526695	334.592316	280.678162	43.222309	392.395996	303.948029	59.731468	276.998383	230.084900	764.038391	12.360954	243.988464	677.798157	17.427799	280.321747	674.169922	25.817503	211.535217	595.467102	29.604900	182.603989	477.219513	49.898815	203.713959	455.763672	159.807648	154.617554	99.237190	56.068562	171.042603	121.929787	141.097824	100.969917	58.886562	110.525017	310.744629	52.395767	133.012405	290.071686	51.076942	17.894878	160.107574	370.783447	24.037457	177.390366	285.921722	36.958046	150.114197	202.141479	38.042881	208.063629	286.296265	61.572353	380.355042	71.572411	69.513115	
